<svg width="120" height="50" viewBox="0 0 120 50" fill="none" xmlns="http://www.w3.org/2000/svg">
  <circle cx="25" cy="25" r="20" fill="#0891B2"/>
  <path d="M25 5C14.5066 5 6 13.5066 6 24C6 34.4934 14.5066 43 25 43C35.4934 43 44 34.4934 44 24C44 13.5066 35.4934 5 25 5ZM25 40C16.1634 40 9 32.8366 9 24C9 15.1634 16.1634 8 25 8C33.8366 8 41 15.1634 41 24C41 32.8366 33.8366 40 25 40Z" fill="white"/>
  <path d="M25 13C20.0294 13 16 17.0294 16 22C16 26.9706 20.0294 31 25 31C29.9706 31 34 26.9706 34 22C34 17.0294 29.9706 13 25 13ZM25 28C21.6863 28 19 25.3137 19 22C19 18.6863 21.6863 16 25 16C28.3137 16 31 18.6863 31 22C31 25.3137 28.3137 28 25 28Z" fill="white"/>
  <path d="M25 19C23.3431 19 22 20.3431 22 22C22 23.6569 23.3431 25 25 25C26.6569 25 28 23.6569 28 22C28 20.3431 26.6569 19 25 19Z" fill="white"/>
  <path d="M35 15L40 10" stroke="white" stroke-width="2" stroke-linecap="round"/>
  <path d="M35 29L40 34" stroke="white" stroke-width="2" stroke-linecap="round"/>
  <path d="M15 15L10 10" stroke="white" stroke-width="2" stroke-linecap="round"/>
  <path d="M15 29L10 34" stroke="white" stroke-width="2" stroke-linecap="round"/>
  <path d="M60 20H65L70 35H65L64 32H61L60 35H55L60 20ZM63 29L62.5 27L62 29H63Z" fill="#0891B2"/>
  <path d="M72 20H77V32H82V35H72V20Z" fill="#0891B2"/>
  <path d="M85 20H90V35H85V20Z" fill="#0891B2"/>
  <path d="M93 20H98V35H93V20Z" fill="#0891B2"/>
  <path d="M101 20H106V32H111V35H101V20Z" fill="#0891B2"/>
</svg>